<svg id="Capa_1" data-name="Capa 1" xmlns="http://www.w3.org/2000/svg" viewBox="0 0 1180 990"><defs><style>.cls-1{fill:none;}</style></defs><title>gato</title><rect class="cls-1" width="1180" height="990"/><path d="M226.13,230.84c8.86,5.5,18.7,10.44,24.3,19.23,3.49,5.5,5,12,6.46,18.35,1.64,7.14,3.29,14.32,5,21.47q3.45,14.52,7,29,12.15,50,25.62,99.59c.69,2.47,1.39,5,3,7,2,2.41,5.17,3.56,8.14,4.64A214.55,214.55,0,0,1,327.8,440c2.27,1.17,4.42,2.53,6.65,3.77,4.87,2.73,9.68,5.56,14.33,8.66,2.47,1.64,4.86,3.42,7.26,5.17,4.19,3.05,8.29,6.24,12.25,9.59,2.37,2,4.7,4,7,6.15,1.58,1.46,3,3.05,4.56,4.56q-.35,12.06-.26,24.12c.14,16.3,1.15,32.78,5.31,48.49.6,2.25,1.05,4.54,1.79,6.75a112.37,112.37,0,0,0,4.19,10.61,181.74,181.74,0,0,0,17.36,29.43c-9.71,29.77-18.18,60.07-30.43,88.82-2.2,5.2-4.54,10.37-7,15.44a290.85,290.85,0,0,1-19.43,33.56c-5.5,8.17-11.49,16.14-19.06,22.46-6.23,5.17-13.41,9.19-18.94,15.08a27.7,27.7,0,0,0-6.79,12.12,16.58,16.58,0,0,0,.5,10c3.89,10,16.53,12.78,27.24,13.34,17.51.95,36.72-.69,49.59-12.65,7-6.49,11.3-15.31,15.58-23.88,8.76-17.61,18.15-35.1,29.11-51.37.4-.63.79-1.25,1.22-1.84a227.35,227.35,0,0,1,23.42-29.08c5.86-6.13,12.08-11.83,18.44-17.39l0,0c1.83,1.91,3.67,3.75,5.58,5.66,3.31,3.39,6.61,6.69,9.91,10a.08.08,0,0,0,.08.08l.18.18C493.1,711.49,508,733,529.06,745.45c-22.25-7.9-46.46,8-69.86,4.89-8.65-1.16-16.94-4.92-25.67-4.78-14,.21-26.87,11.9-28.45,25.79-.42,3.7,0,7.79,2.54,10.52,2.83,3.06,7.41,3.56,11.58,3.82,15.6,1,31.23,1.07,46.86.86a1.48,1.48,0,0,1-.08.13,27.45,27.45,0,0,0-2.51,8.56c-.42,3.69,0,7.78,2.54,10.51,2.83,3.06,7.41,3.56,11.56,3.82,75.45,4.64,151.13-7.87,226.54-4,2.41.13,4.84.26,7.25.43,2.93.19,6.06.39,8.63-1,3.36-1.81,4.84-5.73,5.79-9.45.07-.23.1-.46.17-.69.33-1.35.62-2.7.92-4,3.13,1.71,6.29,3.39,9.55,4.84,1,.43,2,.89,3.1,1.29,25.75,10.14,55,4,81-5.37,14-5,27.73-11.1,39.81-19.73,27.34-19.5,44.13-50.78,53.82-82.92s13-65.77,19.13-98.8,15.28-66.3,34.84-93.6c7-9.71,15.35-18.67,25.76-24.63,6.42-3.62,13.6-6.16,19-11.2A20.22,20.22,0,0,0,1018,453a15.34,15.34,0,0,0,.92-6.81,10.46,10.46,0,0,0-1.94-5.27c-4.19-5.83-12.72-6.06-19.8-4.85-31,5.37-57.23,27.57-74.06,54.21a189.71,189.71,0,0,0-15.84,31.52c-7.28,18.28-12.35,37.54-16.83,56.71-7.18,30.66-13.21,61.88-25.49,90.89a224.49,224.49,0,0,1-44.86,67.94,105.24,105.24,0,0,1-11.85,10.84c-7,5.33-14.69,9.39-23.32,10.31a38.55,38.55,0,0,1-13.83-1.12c-8.13-2-15.87-6.29-22.79-11.2a107.89,107.89,0,0,1-25.19-24.63v0c0-2.36,0-4.71,0-7.07V703.58a212.78,212.78,0,0,1,.88-25.14,91.77,91.77,0,0,1,1.48-9.3c2.34-10.6,6.85-20.68,8.43-31.45a67.45,67.45,0,0,0,.66-9.74h0v0c0-.8,0-1.69-.08-2.49a97.79,97.79,0,0,0-.87-9.94c-.07-.6-.24-1.2-.32-1.8-.77-5.33-1.74-10.64-2.76-15.9-15.06-60.74-42-89.74-66.86-106.1-17.25-11.44-33.44-16.75-44-22.39-.81-.41-1.62-.89-2.42-1.37-16-9.75-31.42-20.63-46.73-31.5l-.08-.08c-9.83-7-20-14.18-27-24.09-5.32-7.57-8.46-16-10.4-25.06-.36-1.69-.44-3.46-.7-5.18-.5-3.21-1-6.41-1.29-9.69.3-.18.63-.3.92-.48,3.76-2.27,7.48-4.78,10-8.33,3.39-4.71,4.38-10.74,5-16.5a235.73,235.73,0,0,0,1.08-42.58v-.07q2.18-3.4,4.05-7a121.9,121.9,0,0,0,13-73.44q-21.65,11.67-43.34,23.32l-4.58,2.47A118.11,118.11,0,0,0,455.24,228a59.71,59.71,0,0,0-3.79-6.88c-11.23-18.12-30.29-31.35-50.09-40.25q.34,31.62,2.27,63.2c.1,1.78.2,3.53.33,5.3-3.59,3.26-7.08,6.66-10.54,10l-2.27,2.27c-2.37,2.37-4.71,4.78-6.85,7.34a50.63,50.63,0,0,0-7.14,11c-4.49,9.78-4.53,20.63-4.56,31.56-1.23,2.41-3.5,8.86-.83,18.82-.33,2.4-.78,4.78-1.33,7.12a1.88,1.88,0,0,1-.17.59c-.37,1.58-.93,3.1-1.4,4.64-3.24-1.71-6.59-3.23-9.76-5.07l-1-.59a64.6,64.6,0,0,1-12.58-9.09c-5.37-5.27-9.09-11.95-12.38-18.7-7-14.17-12.65-29-18.81-43.54a.21.21,0,0,0,0-.13c-5.44-13-11.23-25.76-18.64-37.74A168.44,168.44,0,0,0,276,202.19c-7.05-7.58-15-14.59-24.47-18.77-8.83-3.89-19.27-5-28.26-1.62-.62.27-1.25.5-1.84.79-9.39,4.35-16.21,14.76-14.66,25S217.27,225.34,226.13,230.84Z"/></svg>