<?xml version="1.0" encoding="iso-8859-1"?>
<!-- Generator: Adobe Illustrator 19.0.0, SVG Export Plug-In . SVG Version: 6.00 Build 0)  -->
<svg version="1.1" id="Layer_1" xmlns="http://www.w3.org/2000/svg" xmlns:xlink="http://www.w3.org/1999/xlink" x="0px" y="0px"
	 viewBox="0 0 512 512" style="enable-background:new 0 0 512 512;" xml:space="preserve">
<path style="fill:#D55400;" d="M256.002,0c-0.001,0-0.001,0-0.002,0l0,0c-62.093,0-112.426,50.335-112.426,112.427v43.242v28.887
	v52.802V305v45.332c0,7.376,5.979,13.357,13.357,13.357h198.142c7.376,0,13.357-5.98,13.357-13.357V305v-67.643v-52.802v-28.887
	v-43.242C368.429,50.335,318.096,0,256.002,0z"/>
<path style="fill:#D33700;" d="M165.835,350.33v-45.332v-67.642v-52.802v-28.887v-43.242c0-58.336,44.428-106.29,101.296-111.88
	C263.47,0.188,259.758,0,256.002,0c-0.001,0-0.001,0-0.002,0l0,0c-62.093,0-112.426,50.335-112.426,112.427v43.242v28.887v52.802
	V305v45.332c0,7.376,5.979,13.357,13.357,13.357h22.261C171.814,363.687,165.835,357.707,165.835,350.33z"/>
<rect x="214.295" y="256" style="fill:#F9BF8C;" width="83.409" height="99.473"/>
<rect x="214.295" y="256" style="fill:#EFB27B;" width="22.261" height="99.473"/>
<path style="fill:#F9BF8C;" d="M347.792,144.919c-1.726,0-3.41,0.175-5.039,0.504H331.65v49.88h11.103v-0.504
	c1.628,0.328,3.314,0.504,5.039,0.504c13.913,0,25.194-11.278,25.194-25.193C372.985,156.198,361.705,144.919,347.792,144.919z"/>
<path style="fill:#FFD3A4;" d="M344.831,116.813l-37.485-29.837c-1.294-1.033-3.151-0.956-4.361,0.174
	c-0.619,0.58-62.732,57.916-133.793,59.204c-1.82,0.032-3.278,1.517-3.278,3.338v46.751c0,48.443,39.413,87.856,87.859,87.856h4.461
	c48.445,0,87.859-39.412,87.859-87.856v-77.017C346.091,118.408,345.627,117.446,344.831,116.813z"/>
<path style="fill:#414143;" d="M451.554,408.563c-5.894-59.171-40.04-104.588-101.387-105.176l-27.192-4.178l-25.269-7.924v12.088
	h-0.002l-41.702,52.097l-41.705-52.097l0,0v-12.088l-25.269,7.924l-27.192,4.178c-61.348,0.588-95.494,46.005-101.387,105.176
	c-0.613,6.161-0.922,12.472-0.922,18.896v71.185c0,0.461,0.023,0.916,0.07,1.366C60.282,506.743,65.97,512,72.884,512h366.232
	c6.918,0,12.604-5.257,13.289-11.991c0.046-0.449,0.068-0.905,0.068-1.366v-63.722L451.554,408.563z"/>
<g>
	<path style="fill:#767677;" d="M221.812,365.906L221.812,365.906c5.136,6.972,10.071,5.595,12.354,4.353l21.837-14.79
		l-41.705-52.097l0,0v-12.088l-25.269,7.924c0.411,1.316,0.634,2.714,0.634,4.164v18.887L221.812,365.906z"/>
	<path style="fill:#767677;" d="M297.707,291.285v12.088h-0.002l-41.702,52.097l21.622,14.644l0,0c0,0,0.003,0.002,0.004,0.002
		l0.355,0.242c1.373,0.849,6.531,3.248,12.066-4.26l32.292-43.836v-18.889c0-1.451,0.221-2.848,0.634-4.164L297.707,291.285z"/>
</g>
<path style="fill:#C4E9F2;" d="M352.235,416.821h-2.124c-0.57,7.162-6.55,12.8-13.856,12.8c-7.308,0-13.289-5.638-13.858-12.8
	H189.607c-0.57,7.162-6.548,12.8-13.856,12.8c-7.308,0-13.289-5.638-13.856-12.8h-2.124c-7.378,0-13.357,5.98-13.357,13.357V512
	h219.177v-81.822C365.591,422.802,359.611,416.821,352.235,416.821z"/>
<path style="fill:#AADAE2;" d="M167.909,427.184c-3.368-2.31-5.675-6.056-6.016-10.362h-2.124c-7.378,0-13.357,5.98-13.357,13.357
	V512h21.148v-81.822C167.561,429.146,167.689,428.148,167.909,427.184z"/>
<g>
	<path style="fill:#68C3EA;" d="M336.255,429.621c-7.684,0-13.913-6.23-13.913-13.913V303.372c0-7.683,6.229-13.913,13.913-13.913
		c7.682,0,13.913,6.23,13.913,13.913v112.336C350.168,423.393,343.937,429.621,336.255,429.621z"/>
	<path style="fill:#68C3EA;" d="M175.75,429.621c-7.684,0-13.913-6.23-13.913-13.913V303.372c0-7.683,6.229-13.913,13.913-13.913
		c7.682,0,13.913,6.23,13.913,13.913v112.336C189.663,423.393,183.433,429.621,175.75,429.621z"/>
</g>
<path style="fill:#E8F4F7;" d="M318.294,448.543h-17.185h-27.826h-81.95c-7.377,0-13.357,5.98-13.357,13.357V512h153.673v-50.1
	C331.65,454.524,325.67,448.543,318.294,448.543z"/>
<path style="fill:#F9BE8F;" d="M188.174,196.442v-28.298v-18.453v-4.98c-6.231,0.947-12.57,1.525-18.983,1.642
	c-1.82,0.032-3.278,1.517-3.278,3.338v46.751c0,48.443,39.413,87.856,87.859,87.856h4.461c3.003,0,5.971-0.154,8.9-0.449
	C222.85,279.374,188.174,241.882,188.174,196.442z"/>
<path style="fill:#343438;" d="M82.711,408.563c5.137-51.581,31.745-92.704,79.126-102.797v-2.379
	c-61.348,0.588-95.494,46.005-101.387,105.176c-0.613,6.161-0.922,12.472-0.922,18.896v71.185c0,0.461,0.023,0.916,0.07,1.366
	C60.282,506.743,65.97,512,72.884,512h22.261c-6.915,0-12.602-5.257-13.288-11.991c-0.046-0.449-0.07-0.905-0.07-1.366v-71.185
	C81.789,421.034,82.098,414.723,82.711,408.563z"/>
<g>
</g>
<g>
</g>
<g>
</g>
<g>
</g>
<g>
</g>
<g>
</g>
<g>
</g>
<g>
</g>
<g>
</g>
<g>
</g>
<g>
</g>
<g>
</g>
<g>
</g>
<g>
</g>
<g>
</g>
</svg>
