<svg id="Capa_1" data-name="Capa 1" xmlns="http://www.w3.org/2000/svg" viewBox="0 0 1180 990"><defs><style>.cls-1{fill:none;}</style></defs><title>perro</title><rect class="cls-1" width="1180" height="990"/><path d="M211.33,303.85l48-18.46a30,30,0,0,0,18.57-20A43.69,43.69,0,0,1,292,244.47l1.28-1.05-.4.83c27.94-22.6,80.63-15.59,80.63-15.59a54.87,54.87,0,0,1,44.95,35l18.86,49.9L466.68,343l.26-.26,11.12,11.12a27.13,27.13,0,0,1,3.59.47,17,17,0,0,1,2,.48.31.31,0,0,1,.11,0,1.61,1.61,0,0,1,.37.07l.87.26,1.6.44c1.23.36,2.83.79,4.79,1.34l3.13.87c2.29.66,4.9,1.38,7.78,2.15l4,1.12,4.29,1.2a3.07,3.07,0,0,0,.58.15l7,2c10.1,2.79,21.37,5.92,32.23,9l5.38,1.49,5.31,1.49,5.12,1.42c19.37,5.38,34.45,9.59,34.45,9.59a31.79,31.79,0,0,0,6.43,1.09c21.11,1.38,140,9.45,185.07,18.35.26,0,.48.18.74.24,1.07-.8,2.16-1.55,3.22-2.38s2.13-1.66,3.18-2.53a195.39,195.39,0,0,0,18.93-17.88l.57-.6q4.62-5,8.93-10.32l.53-.65q4.13-5.1,7.94-10.38l.6-.81c.54-.76,1-1.53,1.55-2.28,4.06-5.78,7.82-11.62,11.19-17.48.17-.29.36-.57.52-.86l-.37,0,.29-.5c2.58-4.41,5-8.95,7.22-13.5,1.43-2.91,2.88-5.76,4.41-8.78,3.23-6.36,6.56-12.92,9.61-19.95a154.85,154.85,0,0,0,8-23.27c.33-1.29.65-2.58,1-3.85,2.15-8.56,4.19-16.64,6.94-22.1a3.93,3.93,0,0,1,7.44,1.49c.66,11.2.22,23.82-1.38,39.7-1.72,16.39-6.87,35.85-14.49,54.79-4,10-7.61,18.15-11.31,25.68l-.18.36-.32-.2a244.58,244.58,0,0,1-12.57,22.6q-1.9,3-3.85,6C842,412.49,833,425.1,822.47,436.69c7.16,15.12,10.91,32.81,12.9,49.06l.08.54,8.28,54.76v.11a227.16,227.16,0,0,0,9.38,28.2,191.49,191.49,0,0,0,18.2,34.74h0s0,0,.07,0l.25-.11.14.22a146.4,146.4,0,0,0,26.53,30.49,28.8,28.8,0,0,1,9.48,15c6.58,25.65,26.1,96.19,26.31,96.88l.11.47h-.69c.22.83.4,1.74.58,2.69a24.65,24.65,0,0,1-5.26,20.56c-4,5-9.42,7.93-14.43,7.93l-27.84.76c-7.26,0-12.93-2.94-15.48-8.1a14,14,0,0,1,1.71-14.76,44.69,44.69,0,0,1,8.4-7.7,63.42,63.42,0,0,0,5.16-4.22l-13.74-42.29-9.52-29.25-40.27-24.52c6.68,29.94,16.38,101.65,16.38,101.65,3.07,14.75-9,28.05-19.34,28.05l-27.81.76c-15.51,0-20.29-13.24-13.48-22.25,3.58-4.75,9.34-8.06,13.43-11.9l-14.41-78.63L709.68,617.7A234.12,234.12,0,0,1,684.91,587L679,588.63c-9,3.23-21.11-1.24-24.31-6.25-2-3.12-.66-9.06,2.82-13.88-61.43,9.29-123.75,17.25-171,18L500,661.12l2.87,16.1c.29,3.12-7.38,48.62-9.09,58.72l.26,0,0,.36c-.07.43-5.34,41.35-30.63,41.35l-28.82,1.13c-10.72,0-17.37-2.55-19.73-7.56s-.22-12,5.6-19.08c4.25-5.16,11.12-8.1,17.73-11a65.67,65.67,0,0,0,10.72-5.34l6.39-26.75a68.36,68.36,0,0,0-2.69-39.86l-16-42-12.11-31.77-19.35,91.77a39.8,39.8,0,0,1-3.47,9.79l-23.86,46.75-.13,0c-3.69,11.54-10.86,25.13-24.2,25.13L327,770c-24.23,0-20.55-15.7-12.72-26.06,5.72-7.57,16.86-10.45,24.28-15.07l13.76-24.09a90.19,90.19,0,0,0,11.83-41.13l5.57-139a98.42,98.42,0,0,1-2.7-11.07,163.32,163.32,0,0,1-2.11-29.1V466.86l-15.37-25.22-31.8-52.18a16,16,0,0,0-13.88-7.81l-6.61-.11.65-.33-3.92-.07-28.2-.33.29.36L248.87,381c-13.33,0-23.29-3.52-30.38-11.22s-11.37-19.55-13.33-36.2c-.08-.47-.11-.94-.15-1.45s-.11-.91-.14-1.34l-3.24-13.67A13.73,13.73,0,0,1,211.33,303.85Z"/></svg>